<?xml version="1.0" encoding="UTF-8"?><svg id="Layer_1" xmlns="http://www.w3.org/2000/svg" viewBox="0 0 485.72 492.33"><defs><style>.cls-1{fill:#fff;}</style></defs><path class="cls-1" d="m214.63,246.44c.38-1.16.85-2.28,1.38-3.37.52-1.07,1.09-2.11,1.74-3.1,2.4-3.66,5.63-6.71,9.44-8.89.38-.22.76-.42,1.14-.62,3.78-1.94,8.05-3.05,12.59-3.05s8.79,1.11,12.56,3.04c.39.2.77.4,1.15.62,3.81,2.18,7.04,5.22,9.44,8.88.65.99,1.23,2.04,1.75,3.12.52,1.08.99,2.2,1.37,3.36.9,2.73,1.41,5.64,1.41,8.67,0,.16-.02.32-.03.49-.03,1.46-.17,2.88-.41,4.27-.32,1.84-.82,3.62-1.48,5.32-1.33,3.39-3.3,6.45-5.77,9.03-.05.05-.09.11-.14.16-.02.02-.03.04-.05.06-2.8,2.87-6.23,5.12-10.06,6.56-3.03,1.14-6.31,1.8-9.74,1.8s-6.88-.68-9.97-1.88c-3.82-1.48-7.22-3.77-10.01-6.67-.15-.15-.28-.31-.43-.47-2.28-2.49-4.11-5.39-5.36-8.59-.66-1.69-1.16-3.45-1.48-5.29-.24-1.4-.39-2.83-.42-4.3,0-.16-.03-.32-.03-.48,0-3.03.5-5.93,1.4-8.66m-200.78-3.37v23.91h137.56L-.05,294.89l3.92,22.41,162-29.93-134.91,60.78,8.42,20.38,141.42-63.79-111.04,123.88,17.89,16.02,95.05-106.1-53.42,92.48,20.8,12.01,68.12-117.95-43.83,149.91,21.58,6.41,32.92-108.45.02-.07-.02.07v113.48h24.06v-113.55l32.94,108.53,21.58-6.41-43.83-149.91,68.12,117.95,20.8-12.01-53.42-92.48,95.05,106.1,17.89-16.02-111.04-123.88,141.42,63.79,8.42-20.38-134.91-60.78,162,29.93,3.92-22.41-151.46-27.91h137.55v-23.91s-121.76,0-121.76,0l133.49-48.76-8.25-22.54-129.52,47.35,95.08-52.54-11.55-19.61-98.77,54.52,113.84-94.24-14.76-18.33-119.17,99,88.77-108.68-19.07-16.11-67.17,81.55,38.19-78.17-21.59-10.53-54.01,109.15,38.11-136.66-21.55-6.45-35.33,121.27V17.22s-24.06,0-24.06,0l.02,126.08-35.33-121.27-21.55,6.45,38.11,136.66-54-109.15-21.59,10.53,38.19,78.17L105.53,63.14l-19.07,16.11,88.77,108.68L56.06,88.93l-14.76,18.33,113.84,94.24-98.77-54.52-11.55,19.61,95.08,52.54L10.38,171.78l-8.25,22.54,133.49,48.76H13.85Z"/></svg>