<?xml version="1.0" encoding="UTF-8"?><svg id="Layer_1" xmlns="http://www.w3.org/2000/svg" viewBox="0 0 485.72 492.33"><defs><style>.cls-1{fill:#fff;}.cls-2{opacity:.5;}.cls-3{opacity:.75;}</style></defs><path class="cls-1" d="m259.96,190.91c.05,9.57-7.67,17.37-17.24,17.42-9.57.05-17.37-7.67-17.42-17.24-.05-9.57,7.67-17.37,17.24-17.42,9.57-.05,17.37,7.67,17.42,17.24"/><path class="cls-1" d="m212.89,219.84c.05,9.57-7.67,17.37-17.24,17.42-9.57.05-17.37-7.67-17.42-17.24-.05-9.57,7.67-17.37,17.24-17.42,9.57-.05,17.37,7.67,17.42,17.24"/><path class="cls-1" d="m213.16,272.44c.05,9.57-7.67,17.37-17.24,17.42-9.57.05-17.37-7.67-17.42-17.24-.05-9.57,7.67-17.37,17.24-17.42,9.57-.05,17.37,7.67,17.42,17.24"/><path class="cls-1" d="m260.92,299.09c.05,9.57-7.67,17.37-17.24,17.42-9.57.05-17.37-7.67-17.42-17.24-.05-9.57,7.67-17.37,17.24-17.42,9.57-.05,17.37,7.67,17.42,17.24"/><path class="cls-1" d="m256.84,132.02c3.05,7.75-.76,16.51-8.52,19.56-7.75,3.05-16.51-.76-19.56-8.52-3.05-7.75.76-16.51,8.52-19.56,7.75-3.05,16.51.77,19.56,8.52"/><path class="cls-1" d="m208.79,151.51c3.05,7.75-.76,16.51-8.52,19.56-7.75,3.05-16.51-.76-19.56-8.52-3.05-7.75.76-16.51,8.52-19.56,7.75-3.05,16.51.76,19.56,8.52"/><path class="cls-1" d="m161.23,202.08c-5.86,5.92-15.41,5.97-21.33.11-5.92-5.86-5.97-15.41-.11-21.33,5.86-5.92,15.41-5.97,21.33-.11,5.92,5.86,5.97,15.41.11,21.33"/><path class="cls-1" d="m146.24,253.24c-5.86,5.92-15.41,5.97-21.33.11-5.92-5.86-5.97-15.41-.11-21.33,5.86-5.92,15.41-5.97,21.33-.11,5.92,5.86,5.97,15.41.11,21.33"/><path class="cls-1" d="m161.79,310.27c-5.86,5.92-15.41,5.97-21.33.11-5.92-5.86-5.97-15.41-.11-21.33,5.86-5.92,15.41-5.97,21.33-.11,5.92,5.86,5.97,15.41.11,21.33"/><path class="cls-1" d="m200.65,348.73c-5.86,5.92-15.41,5.97-21.33.11-5.92-5.86-5.97-15.41-.11-21.33,5.86-5.92,15.41-5.97,21.33-.11,5.92,5.86,5.97,15.41.11,21.33"/><path class="cls-1" d="m254.12,364.38c-6.14,5.63-15.68,5.22-21.31-.91-5.63-6.14-5.22-15.68.91-21.31,6.14-5.63,15.68-5.22,21.31.91,5.63,6.14,5.22,15.68-.91,21.31"/><g class="cls-3"><path class="cls-1" d="m254.63,89.05c2.71,6.89-.68,14.67-7.57,17.37-6.89,2.71-14.67-.68-17.37-7.57-2.71-6.89.68-14.67,7.57-17.37,6.89-2.71,14.66.68,17.37,7.57"/></g><g class="cls-3"><path class="cls-1" d="m256.46,391.94c2.79,7.1-.7,15.11-7.8,17.9-7.1,2.79-15.11-.7-17.9-7.8-2.79-7.1.7-15.11,7.8-17.9,7.1-2.79,15.11.7,17.9,7.8"/></g><g class="cls-3"><path class="cls-1" d="m181.91,386.88c.94-6.65,7.08-11.28,13.73-10.34,6.65.94,11.28,7.08,10.34,13.73-.94,6.65-7.08,11.28-13.73,10.34-6.65-.94-11.28-7.08-10.34-13.73"/></g><g class="cls-3"><path class="cls-1" d="m136.32,359.46c.91-6.5,6.92-11.02,13.42-10.11,6.5.91,11.02,6.92,10.11,13.42-.91,6.5-6.92,11.02-13.42,10.11-6.5-.91-11.02-6.92-10.11-13.42"/></g><g class="cls-3"><path class="cls-1" d="m101.72,318.93c.86-6.09,6.49-10.33,12.58-9.47,6.09.86,10.33,6.49,9.47,12.58-.86,6.09-6.49,10.33-12.58,9.47-6.09-.86-10.33-6.49-9.47-12.58"/></g><g class="cls-3"><path class="cls-1" d="m84.73,269.92c.86-6.09,6.49-10.33,12.58-9.47,6.09.86,10.33,6.49,9.47,12.58-.86,6.09-6.49,10.33-12.58,9.47-6.09-.86-10.33-6.49-9.47-12.58"/></g><g class="cls-3"><path class="cls-1" d="m84.47,218.9c.86-6.09,6.49-10.33,12.58-9.47,6.09.86,10.33,6.49,9.47,12.58-.86,6.09-6.49,10.33-12.58,9.47-6.09-.86-10.33-6.49-9.47-12.58"/></g><g class="cls-3"><path class="cls-1" d="m100.94,167.79c.86-6.09,6.49-10.33,12.58-9.47,6.09.86,10.33,6.49,9.47,12.58-.86,6.09-6.49,10.33-12.58,9.47-6.09-.86-10.33-6.49-9.47-12.58"/></g><g class="cls-3"><path class="cls-1" d="m135.01,129.76c.86-6.09,6.49-10.33,12.58-9.47,6.09.86,10.33,6.49,9.47,12.58-.86,6.09-6.49,10.33-12.58,9.47-6.09-.86-10.33-6.49-9.47-12.58"/></g><g class="cls-3"><path class="cls-1" d="m94.68,109.05c.74-5.28,5.62-8.95,10.9-8.21,5.28.74,8.95,5.62,8.21,10.9-.74,5.28-5.62,8.95-10.9,8.21-5.28-.74-8.95-5.62-8.21-10.9"/></g><g class="cls-3"><path class="cls-1" d="m184.95,106.84c.86-6.09,6.49-10.33,12.58-9.47,6.09.86,10.33,6.49,9.47,12.58-.86,6.09-6.49,10.33-12.58,9.47-6.09-.86-10.33-6.49-9.47-12.58"/></g><g class="cls-3"><path class="cls-1" d="m133.51,76.12c.86-6.09,6.49-10.33,12.58-9.47,6.09.86,10.33,6.49,9.47,12.58-.86,6.09-6.49,10.33-12.58,9.47-6.09-.86-10.33-6.49-9.47-12.58"/></g><g class="cls-3"><path class="cls-1" d="m184.94,432.78c.92-6.54,6.97-11.1,13.51-10.18,6.54.92,11.1,6.97,10.18,13.51-.92,6.54-6.97,11.1-13.51,10.18-6.54-.92-11.1-6.97-10.18-13.51"/></g><g class="cls-3"><path class="cls-1" d="m133.93,411.17c.9-6.43,6.85-10.91,13.28-10,6.43.9,10.91,6.85,10,13.28-.91,6.43-6.85,10.91-13.28,10-6.43-.91-10.91-6.85-10-13.28"/></g><g class="cls-3"><path class="cls-1" d="m113.33,392.47c-5.31,3.1-12.13,1.31-15.23-4-3.1-5.31-1.31-12.13,4-15.23,5.31-3.1,12.13-1.31,15.23,4,3.1,5.31,1.31,12.13-4,15.23"/></g><g class="cls-3"><path class="cls-1" d="m231.43,50.83c.86-6.09,6.49-10.33,12.58-9.47,6.09.86,10.33,6.49,9.47,12.58-.86,6.09-6.49,10.33-12.58,9.47-6.09-.86-10.33-6.49-9.47-12.58"/></g><g class="cls-3"><path class="cls-1" d="m181.64,58.07c.86-6.09,6.49-10.33,12.58-9.47,6.09.86,10.33,6.49,9.47,12.58-.86,6.09-6.49,10.33-12.58,9.47-6.09-.86-10.33-6.49-9.47-12.58"/></g><g class="cls-3"><path class="cls-1" d="m72.64,336.78c4.97-1.53,10.23,1.26,11.76,6.22,1.53,4.97-1.26,10.23-6.22,11.76-4.97,1.53-10.23-1.26-11.76-6.22-1.53-4.97,1.26-10.23,6.22-11.76"/></g><g class="cls-3"><path class="cls-1" d="m57.81,293.19c5.4,1.31,8.71,6.75,7.4,12.15-1.31,5.4-6.75,8.71-12.15,7.4-5.4-1.31-8.71-6.75-7.4-12.15,1.31-5.4,6.75-8.71,12.15-7.4"/></g><g class="cls-3"><path class="cls-1" d="m49.86,242.55c5.56,1.35,8.98,6.95,7.63,12.52-1.35,5.56-6.95,8.98-12.52,7.63-5.56-1.35-8.98-6.95-7.63-12.52,1.35-5.56,6.95-8.98,12.52-7.63"/></g><g class="cls-3"><path class="cls-1" d="m54.85,192c4.93,1.2,7.96,6.17,6.77,11.1-1.2,4.93-6.17,7.96-11.1,6.77-4.93-1.2-7.96-6.17-6.77-11.1,1.2-4.93,6.17-7.96,11.1-6.77"/></g><g class="cls-3"><path class="cls-1" d="m62.74,153.61c.57-5.41,5.41-9.34,10.82-8.77,5.41.57,9.34,5.41,8.77,10.82-.57,5.41-5.41,9.34-10.82,8.77-5.41-.57-9.34-5.41-8.77-10.82"/></g><g class="cls-3"><path class="cls-1" d="m231.59,439.73c.91-6.46,6.88-10.96,13.35-10.05,6.46.91,10.96,6.88,10.05,13.35-.91,6.46-6.88,10.96-13.35,10.05-6.46-.91-10.96-6.89-10.05-13.35"/></g><g class="cls-2"><path class="cls-1" d="m184.83,473.09c.86-6.09,6.49-10.33,12.58-9.47,6.09.86,10.33,6.49,9.47,12.58-.86,6.09-6.49,10.33-12.58,9.47-6.09-.86-10.33-6.49-9.47-12.58"/></g><g class="cls-2"><path class="cls-1" d="m135.7,34.31c.86-6.09,6.49-10.33,12.58-9.47,6.09.86,10.33,6.49,9.47,12.58-.86,6.09-6.49,10.33-12.58,9.47-6.09-.86-10.33-6.49-9.47-12.58"/></g><g class="cls-2"><path class="cls-1" d="m153.38,470.61c-5.31,3.1-12.13,1.31-15.23-4-3.1-5.31-1.31-12.13,4-15.23,5.31-3.1,12.13-1.31,15.23,4,3.1,5.31,1.31,12.13-4,15.23"/></g><g class="cls-2"><path class="cls-1" d="m231.71,11.52c.86-6.09,6.49-10.33,12.58-9.47,6.09.86,10.33,6.49,9.47,12.58-.86,6.09-6.49,10.33-12.58,9.47-6.09-.86-10.33-6.49-9.47-12.58"/></g><g class="cls-2"><path class="cls-1" d="m181.93,17.47c.86-6.09,6.49-10.33,12.58-9.47,6.09.86,10.33,6.49,9.47,12.58-.86,6.09-6.49,10.33-12.58,9.47-6.09-.86-10.33-6.49-9.47-12.58"/></g><g class="cls-2"><path class="cls-1" d="m100.66,430.71c5.15-1.59,10.61,1.3,12.19,6.45,1.59,5.15-1.3,10.61-6.45,12.19-5.15,1.59-10.61-1.3-12.19-6.45-1.58-5.15,1.3-10.61,6.45-12.19"/></g><g class="cls-2"><path class="cls-1" d="m69.77,87.64c4.01,3.47,4.44,9.53.98,13.53-3.47,4.01-9.53,4.44-13.53.98-4.01-3.47-4.44-9.53-.97-13.53,3.47-4.01,9.53-4.44,13.53-.98"/></g><g class="cls-2"><path class="cls-1" d="m108.33,53.84c4.3,3.72,4.77,10.22,1.05,14.52-3.72,4.3-10.22,4.77-14.52,1.05-4.3-3.72-4.77-10.22-1.05-14.52,3.72-4.3,10.22-4.77,14.52-1.05"/></g><g class="cls-2"><path class="cls-1" d="m231.27,477.7c.86-6.09,6.49-10.33,12.58-9.47,6.09.86,10.33,6.49,9.47,12.58-.86,6.09-6.49,10.33-12.58,9.47-6.09-.86-10.33-6.49-9.47-12.58"/></g><g class="cls-2"><path class="cls-1" d="m60.69,403.12c.67-4.78,5.1-8.12,9.88-7.44,4.78.67,8.12,5.1,7.44,9.88-.67,4.78-5.1,8.11-9.88,7.44-4.78-.67-8.12-5.1-7.44-9.88"/></g><g class="cls-2"><path class="cls-1" d="m33.96,364.96c.67-4.78,5.09-8.11,9.87-7.43,4.78.67,8.11,5.09,7.43,9.87-.67,4.78-5.09,8.11-9.87,7.43-4.78-.67-8.11-5.09-7.43-9.87"/></g><g class="cls-2"><path class="cls-1" d="m13.76,319c.65-4.6,4.91-7.81,9.51-7.16,4.6.65,7.81,4.91,7.16,9.51-.65,4.6-4.91,7.81-9.51,7.16-4.6-.65-7.81-4.91-7.16-9.51"/></g><g class="cls-2"><path class="cls-1" d="m2.06,274.71c.67-4.74,5.05-8.04,9.79-7.37,4.74.67,8.04,5.05,7.37,9.79-.67,4.74-5.05,8.04-9.79,7.37-4.74-.67-8.04-5.05-7.37-9.79"/></g><g class="cls-2"><path class="cls-1" d="m2,224.77c.68-4.86,5.18-8.25,10.05-7.57,4.86.68,8.25,5.18,7.57,10.05-.68,4.86-5.18,8.25-10.05,7.57-4.86-.68-8.25-5.18-7.57-10.05"/></g><g class="cls-2"><path class="cls-1" d="m10.87,175.44c.68-4.86,5.18-8.25,10.04-7.56,4.86.68,8.25,5.18,7.56,10.04-.68,4.86-5.18,8.25-10.04,7.56-4.86-.68-8.25-5.18-7.56-10.04"/></g><g class="cls-2"><path class="cls-1" d="m28.72,130.34c.74-5.28,5.63-8.96,10.91-8.22,5.28.74,8.96,5.63,8.22,10.91-.74,5.28-5.63,8.96-10.91,8.22-5.28-.74-8.96-5.63-8.22-10.91"/></g><path class="cls-1" d="m272.83,272.66c-.05-9.57,7.67-17.37,17.24-17.42,9.57-.05,17.37,7.67,17.42,17.24.05,9.57-7.67,17.37-17.24,17.42-9.57.05-17.37-7.67-17.42-17.24"/><path class="cls-1" d="m272.56,220.07c-.05-9.57,7.67-17.37,17.24-17.42,9.57-.05,17.37,7.67,17.42,17.24.05,9.57-7.67,17.37-17.24,17.42-9.57.05-17.37-7.67-17.42-17.24"/><path class="cls-1" d="m276.93,341c-3.05-7.75.76-16.51,8.52-19.56,7.75-3.05,16.51.76,19.56,8.52,3.05,7.75-.76,16.51-8.52,19.56-7.75,3.05-16.51-.76-19.56-8.52"/><path class="cls-1" d="m324.49,290.42c5.86-5.92,15.41-5.97,21.33-.11,5.92,5.86,5.97,15.41.11,21.33-5.86,5.92-15.41,5.97-21.33.11-5.92-5.86-5.97-15.41-.11-21.33"/><path class="cls-1" d="m339.48,239.27c5.86-5.92,15.41-5.97,21.33-.11,5.92,5.86,5.97,15.41.11,21.33-5.86,5.92-15.41,5.97-21.33.11-5.92-5.86-5.97-15.41-.11-21.33"/><path class="cls-1" d="m323.93,182.24c5.86-5.92,15.41-5.97,21.33-.11,5.92,5.86,5.97,15.41.11,21.33-5.86,5.92-15.41,5.97-21.33.11-5.92-5.86-5.97-15.41-.11-21.33"/><path class="cls-1" d="m285.07,143.78c5.86-5.92,15.41-5.97,21.33-.11,5.92,5.86,5.97,15.41.11,21.33-5.86,5.92-15.41,5.97-21.33.11-5.92-5.86-5.97-15.41-.11-21.33"/><g class="cls-3"><path class="cls-1" d="m303.81,105.63c-.94,6.65-7.08,11.28-13.73,10.34-6.65-.94-11.28-7.08-10.34-13.73.94-6.65,7.08-11.28,13.73-10.34,6.65.94,11.28,7.08,10.34,13.73"/></g><g class="cls-3"><path class="cls-1" d="m349.4,133.05c-.91,6.5-6.92,11.02-13.42,10.11-6.5-.91-11.02-6.92-10.11-13.42.91-6.5,6.92-11.02,13.42-10.11,6.5.91,11.02,6.92,10.11,13.42"/></g><g class="cls-3"><path class="cls-1" d="m384,173.58c-.86,6.09-6.49,10.33-12.58,9.47-6.09-.86-10.33-6.49-9.47-12.58.86-6.09,6.49-10.33,12.58-9.47,6.09.86,10.33,6.49,9.47,12.58"/></g><g class="cls-3"><path class="cls-1" d="m400.99,222.58c-.86,6.09-6.49,10.33-12.58,9.47-6.09-.86-10.33-6.49-9.47-12.58.86-6.09,6.49-10.33,12.58-9.47,6.09.86,10.33,6.49,9.47,12.58"/></g><g class="cls-3"><path class="cls-1" d="m401.25,273.61c-.86,6.09-6.49,10.33-12.58,9.47-6.09-.86-10.33-6.49-9.47-12.58.86-6.09,6.49-10.33,12.58-9.47,6.09.86,10.33,6.49,9.47,12.58"/></g><g class="cls-3"><path class="cls-1" d="m384.78,324.72c-.86,6.09-6.49,10.33-12.58,9.47-6.09-.86-10.33-6.49-9.47-12.58.86-6.09,6.49-10.33,12.58-9.47,6.09.86,10.33,6.49,9.47,12.58"/></g><g class="cls-3"><path class="cls-1" d="m350.71,362.75c-.86,6.09-6.49,10.33-12.58,9.47-6.09-.86-10.33-6.49-9.47-12.58.86-6.09,6.49-10.33,12.58-9.47,6.09.86,10.33,6.49,9.47,12.58"/></g><g class="cls-3"><path class="cls-1" d="m391.04,383.46c-.74,5.28-5.62,8.95-10.9,8.21-5.28-.74-8.95-5.62-8.21-10.9.74-5.28,5.62-8.95,10.9-8.21,5.28.74,8.95,5.62,8.21,10.9"/></g><g class="cls-3"><path class="cls-1" d="m300.77,385.67c-.86,6.09-6.49,10.33-12.58,9.47-6.09-.86-10.33-6.49-9.47-12.58.86-6.09,6.49-10.33,12.58-9.47,6.09.86,10.33,6.49,9.47,12.58"/></g><g class="cls-3"><path class="cls-1" d="m352.21,416.39c-.86,6.09-6.49,10.33-12.58,9.47-6.09-.86-10.33-6.49-9.47-12.58.86-6.09,6.49-10.33,12.58-9.47,6.09.86,10.33,6.49,9.47,12.58"/></g><g class="cls-3"><path class="cls-1" d="m300.78,59.72c-.92,6.54-6.97,11.1-13.51,10.18-6.54-.92-11.1-6.97-10.18-13.51.92-6.54,6.97-11.1,13.51-10.18,6.54.92,11.1,6.97,10.18,13.51"/></g><g class="cls-3"><path class="cls-1" d="m351.79,81.34c-.9,6.43-6.85,10.91-13.28,10-6.43-.9-10.91-6.85-10-13.28.91-6.43,6.85-10.91,13.28-10,6.43.91,10.91,6.85,10,13.28"/></g><g class="cls-3"><path class="cls-1" d="m372.39,100.03c5.31-3.1,12.13-1.31,15.23,4,3.1,5.31,1.31,12.13-4,15.23-5.31,3.1-12.13,1.31-15.23-4-3.1-5.31-1.31-12.13,4-15.23"/></g><g class="cls-3"><path class="cls-1" d="m304.08,434.43c-.86,6.09-6.49,10.33-12.58,9.47-6.09-.86-10.33-6.49-9.47-12.58.86-6.09,6.49-10.33,12.58-9.47,6.09.86,10.33,6.49,9.47,12.58"/></g><g class="cls-3"><path class="cls-1" d="m413.08,155.72c-4.97,1.53-10.23-1.26-11.76-6.22-1.53-4.97,1.26-10.23,6.22-11.76,4.97-1.53,10.23,1.26,11.76,6.22,1.53,4.97-1.26,10.23-6.22,11.76"/></g><g class="cls-3"><path class="cls-1" d="m427.91,199.31c-5.4-1.31-8.71-6.75-7.4-12.15,1.31-5.4,6.75-8.71,12.15-7.4,5.4,1.31,8.71,6.75,7.4,12.15-1.31,5.4-6.75,8.71-12.15,7.4"/></g><g class="cls-3"><path class="cls-1" d="m435.86,249.95c-5.56-1.35-8.98-6.95-7.63-12.52,1.35-5.56,6.95-8.98,12.52-7.63,5.56,1.35,8.98,6.95,7.63,12.52-1.35,5.56-6.95,8.98-12.52,7.63"/></g><g class="cls-3"><path class="cls-1" d="m430.87,300.51c-4.93-1.2-7.96-6.17-6.77-11.1,1.2-4.93,6.17-7.96,11.1-6.77,4.93,1.2,7.96,6.17,6.77,11.1-1.2,4.93-6.17,7.96-11.1,6.77"/></g><g class="cls-3"><path class="cls-1" d="m422.98,338.9c-.57,5.41-5.41,9.34-10.82,8.77-5.41-.57-9.34-5.41-8.77-10.82.57-5.41,5.41-9.34,10.82-8.77,5.41.57,9.34,5.41,8.77,10.82"/></g><g class="cls-2"><path class="cls-1" d="m300.89,19.41c-.86,6.09-6.49,10.33-12.58,9.47-6.09-.86-10.33-6.49-9.47-12.58.86-6.09,6.49-10.33,12.58-9.47,6.09.86,10.33,6.49,9.47,12.58"/></g><g class="cls-2"><path class="cls-1" d="m350.02,458.2c-.86,6.09-6.49,10.33-12.58,9.47-6.09-.86-10.33-6.49-9.47-12.58.86-6.09,6.49-10.33,12.58-9.47,6.09.86,10.33,6.49,9.47,12.58"/></g><g class="cls-2"><path class="cls-1" d="m332.34,21.89c5.31-3.1,12.13-1.31,15.23,4,3.1,5.31,1.31,12.13-4,15.23-5.31,3.1-12.13,1.31-15.23-4-3.1-5.31-1.31-12.13,4-15.23"/></g><g class="cls-2"><path class="cls-1" d="m303.79,475.03c-.86,6.09-6.49,10.33-12.58,9.47-6.09-.86-10.33-6.49-9.47-12.58.86-6.09,6.49-10.33,12.58-9.47,6.09.86,10.33,6.49,9.47,12.58"/></g><g class="cls-2"><path class="cls-1" d="m385.06,61.8c-5.15,1.59-10.61-1.3-12.19-6.45-1.59-5.15,1.3-10.61,6.45-12.19s10.61,1.3,12.19,6.45c1.58,5.15-1.3,10.61-6.45,12.19"/></g><g class="cls-2"><path class="cls-1" d="m415.95,404.87c-4.01-3.47-4.44-9.53-.98-13.53,3.47-4.01,9.53-4.44,13.53-.98,4.01,3.47,4.44,9.53.97,13.53-3.47,4.01-9.53,4.44-13.53.98"/></g><g class="cls-2"><path class="cls-1" d="m377.39,438.66c-4.3-3.72-4.77-10.22-1.05-14.52,3.72-4.3,10.22-4.77,14.52-1.05,4.3,3.72,4.77,10.22,1.05,14.52-3.72,4.3-10.22,4.77-14.52,1.05"/></g><g class="cls-2"><path class="cls-1" d="m425.03,89.39c-.67,4.78-5.1,8.12-9.88,7.44-4.78-.67-8.12-5.1-7.44-9.88.67-4.78,5.1-8.11,9.88-7.44,4.78.67,8.12,5.1,7.44,9.88"/></g><g class="cls-2"><path class="cls-1" d="m451.76,127.54c-.67,4.78-5.09,8.11-9.87,7.43-4.78-.67-8.11-5.09-7.43-9.87.67-4.78,5.09-8.11,9.87-7.43,4.78.67,8.11,5.09,7.43,9.87"/></g><g class="cls-2"><path class="cls-1" d="m471.96,173.5c-.65,4.6-4.9,7.81-9.51,7.16-4.6-.65-7.81-4.91-7.16-9.51.65-4.6,4.91-7.81,9.51-7.16,4.6.65,7.81,4.91,7.16,9.51"/></g><g class="cls-2"><path class="cls-1" d="m483.66,217.79c-.67,4.74-5.05,8.04-9.79,7.37-4.74-.67-8.04-5.05-7.37-9.79.67-4.74,5.05-8.04,9.79-7.37,4.74.67,8.04,5.05,7.37,9.79"/></g><g class="cls-2"><path class="cls-1" d="m483.72,267.73c-.68,4.86-5.18,8.25-10.05,7.57-4.86-.68-8.25-5.18-7.57-10.05.68-4.86,5.18-8.25,10.05-7.57,4.86.68,8.25,5.18,7.57,10.05"/></g><g class="cls-2"><path class="cls-1" d="m474.85,317.06c-.68,4.86-5.18,8.25-10.04,7.56-4.86-.68-8.25-5.18-7.56-10.04.68-4.86,5.18-8.25,10.04-7.56,4.86.68,8.25,5.18,7.56,10.04"/></g><g class="cls-2"><path class="cls-1" d="m457,362.16c-.74,5.28-5.63,8.96-10.91,8.22-5.28-.74-8.96-5.63-8.22-10.91.74-5.28,5.63-8.96,10.91-8.22,5.28.74,8.96,5.63,8.22,10.91"/></g></svg>