<svg id="Layer_1" xmlns="http://www.w3.org/2000/svg" viewBox="0 0 485.72 492.33"><path d="M214.63 246.44c.38-1.16.85-2.28 1.38-3.37.52-1.07 1.09-2.11 1.74-3.1 2.4-3.66 5.63-6.71 9.44-8.89.38-.22.76-.42 1.14-.62 3.78-1.94 8.05-3.05 12.59-3.05s8.79 1.11 12.56 3.04a27.774 27.774 0 0110.59 9.5c.65.99 1.23 2.04 1.75 3.12s.99 2.2 1.37 3.36c.9 2.73 1.41 5.64 1.41 8.67 0 .16-.02.32-.03.49a27.908 27.908 0 01-1.89 9.59c-1.33 3.39-3.3 6.45-5.77 9.03-.05.05-.09.11-.14.16-.02.02-.03.04-.05.06a27.64 27.64 0 01-10.06 6.56c-3.03 1.14-6.31 1.8-9.74 1.8s-6.88-.68-9.97-1.88a27.843 27.843 0 01-10.01-6.67c-.15-.15-.28-.31-.43-.47a27.579 27.579 0 01-5.36-8.59c-.66-1.69-1.16-3.45-1.48-5.29-.24-1.4-.39-2.83-.42-4.3 0-.16-.03-.32-.03-.48 0-3.03.5-5.93 1.4-8.66m-200.78-3.37v23.91H151.4L-.05 294.89l3.92 22.41 162-29.93-134.91 60.78 8.42 20.38 141.42-63.79L69.76 428.62l17.89 16.02 95.05-106.1-53.42 92.48 20.8 12.01 68.12-117.95-43.83 149.91 21.58 6.41 32.92-108.45.02-.07-.02.07v113.48h24.06V372.88l32.94 108.53 21.58-6.41-43.83-149.91 68.12 117.95 20.8-12.01-53.42-92.48 95.05 106.1 17.89-16.02-111.04-123.88 141.42 63.79 8.42-20.38-134.91-60.78 162 29.93 3.92-22.41-151.46-27.91h137.55v-23.91H346.2l133.49-48.76-8.25-22.54-129.52 47.35L437 166.59l-11.55-19.61-98.77 54.52 113.84-94.24-14.76-18.33-119.17 99 88.77-108.68-19.07-16.11-67.17 81.55 38.19-78.17-21.59-10.53-54.01 109.15 38.11-136.66-21.55-6.45-35.33 121.27V17.22h-24.06l.02 126.08-35.33-121.27-21.55 6.45 38.11 136.66-54-109.15-21.59 10.53 38.19 78.17-67.2-81.55-19.07 16.11 88.77 108.68-119.17-99-14.76 18.33 113.84 94.24-98.77-54.52-11.55 19.61 95.08 52.54-129.52-47.35-8.25 22.54 133.49 48.76H13.85z" fill="#fff"/></svg>