<svg id="Layer_1" xmlns="http://www.w3.org/2000/svg" viewBox="0 0 485.72 492.33"><defs><style>.cls-1{fill:#fff}.cls-2{opacity:.25}.cls-3{opacity:.6}</style></defs><g class="cls-2"><path class="cls-1" d="M242.98 28.34c120.92.02 219.29 98.4 219.29 219.32S363.9 466.97 242.98 466.98c-120.92-.02-219.29-98.4-219.29-219.32s98.37-219.3 219.29-219.32m-.03 460.3h.06c132.85-.03 240.92-108.12 240.92-240.98S375.86 6.72 243.01 6.69s-.02 0-.03 0h-.03C110.1 6.72 2.03 114.8 2.03 247.66S110.1 488.61 242.95 488.64"/></g><g class="cls-2"><path class="cls-1" d="M242.98 74.35c95.55.01 173.28 77.76 173.28 173.31s-77.73 173.3-173.28 173.31c-95.55-.01-173.28-77.76-173.28-173.31s77.73-173.3 173.28-173.31m-.03 368.28h.06c107.48-.03 194.91-87.48 194.91-194.97S350.49 52.73 243.01 52.7h-.06c-107.48.03-194.91 87.48-194.91 194.96s87.43 194.94 194.91 194.97"/></g><g class="cls-3"><path class="cls-1" d="M242.98 120.38c70.17.02 127.25 57.1 127.25 127.28s-57.08 127.26-127.25 127.28c-70.17-.02-127.25-57.1-127.25-127.28s57.08-127.26 127.25-127.28m-.03 276.21h.06c82.09-.03 148.87-66.83 148.87-148.93S325.1 98.76 243.01 98.73s-.02 0-.03 0h-.03c-82.09.03-148.87 66.83-148.87 148.93s66.78 148.9 148.87 148.93"/></g><g class="cls-3"><path class="cls-1" d="M242.98 166.42c44.78.02 81.21 36.46 81.21 81.24s-36.43 81.23-81.21 81.24c-44.78-.02-81.22-36.46-81.22-81.24s36.43-81.23 81.22-81.24m-.03 184.14h.06c56.71-.03 102.84-46.18 102.84-102.9s-46.13-102.87-102.84-102.9-.02 0-.03 0h-.03c-56.71.03-102.84 46.18-102.84 102.9s46.13 102.86 102.84 102.9"/></g><path class="cls-1" d="M242.98 212.45c19.4.02 35.18 15.8 35.18 35.21s-15.78 35.19-35.18 35.21c-19.4-.02-35.18-15.8-35.18-35.21s15.78-35.19 35.18-35.21m-.03 92.07h.06c31.33-.04 56.8-25.53 56.8-56.86s-25.48-56.83-56.8-56.86-.02 0-.03 0h-.03c-31.33.03-56.8 25.53-56.8 56.86s25.48 56.83 56.8 56.86"/></svg>